<mxfile host="65bd71144e">
    <diagram id="QmXgf9rG7SsXeu7Yvre7" name="Page-1">
        <mxGraphModel dx="532" dy="475" grid="1" gridSize="10" guides="1" tooltips="1" connect="1" arrows="1" fold="1" page="1" pageScale="1" pageWidth="850" pageHeight="1100" math="0" shadow="0">
            <root>
                <mxCell id="0"/>
                <mxCell id="1" parent="0"/>
                <mxCell id="21" value="" style="ellipse;whiteSpace=wrap;html=1;aspect=fixed;" vertex="1" parent="1">
                    <mxGeometry x="610" y="150" width="70" height="70" as="geometry"/>
                </mxCell>
                <mxCell id="2" value="0" style="ellipse;whiteSpace=wrap;html=1;aspect=fixed;" vertex="1" parent="1">
                    <mxGeometry x="130" y="160" width="50" height="50" as="geometry"/>
                </mxCell>
                <mxCell id="4" value="" style="endArrow=classic;html=1;entryX=0;entryY=0.5;entryDx=0;entryDy=0;" edge="1" parent="1" target="2">
                    <mxGeometry width="50" height="50" relative="1" as="geometry">
                        <mxPoint x="60" y="185" as="sourcePoint"/>
                        <mxPoint x="90" y="140" as="targetPoint"/>
                    </mxGeometry>
                </mxCell>
                <mxCell id="5" value="1" style="ellipse;whiteSpace=wrap;html=1;aspect=fixed;" vertex="1" parent="1">
                    <mxGeometry x="220" y="160" width="50" height="50" as="geometry"/>
                </mxCell>
                <mxCell id="6" value="2" style="ellipse;whiteSpace=wrap;html=1;aspect=fixed;" vertex="1" parent="1">
                    <mxGeometry x="320" y="160" width="50" height="50" as="geometry"/>
                </mxCell>
                <mxCell id="7" value="3" style="ellipse;whiteSpace=wrap;html=1;aspect=fixed;" vertex="1" parent="1">
                    <mxGeometry x="410" y="160" width="50" height="50" as="geometry"/>
                </mxCell>
                <mxCell id="8" value="4" style="ellipse;whiteSpace=wrap;html=1;aspect=fixed;" vertex="1" parent="1">
                    <mxGeometry x="510" y="160" width="50" height="50" as="geometry"/>
                </mxCell>
                <mxCell id="9" value="6.7" style="ellipse;whiteSpace=wrap;html=1;aspect=fixed;" vertex="1" parent="1">
                    <mxGeometry x="620" y="160" width="50" height="50" as="geometry"/>
                </mxCell>
                <mxCell id="10" value="&#39;r&#39;" style="endArrow=classic;html=1;entryX=0;entryY=0.5;entryDx=0;entryDy=0;verticalAlign=bottom;" edge="1" parent="1" target="5">
                    <mxGeometry width="50" height="50" relative="1" as="geometry">
                        <mxPoint x="180" y="185" as="sourcePoint"/>
                        <mxPoint x="140" y="195" as="targetPoint"/>
                    </mxGeometry>
                </mxCell>
                <mxCell id="11" value="&#39;e&#39;" style="endArrow=classic;html=1;entryX=0;entryY=0.5;entryDx=0;entryDy=0;verticalAlign=bottom;" edge="1" parent="1" target="6">
                    <mxGeometry width="50" height="50" relative="1" as="geometry">
                        <mxPoint x="270" y="185" as="sourcePoint"/>
                        <mxPoint x="230" y="195" as="targetPoint"/>
                    </mxGeometry>
                </mxCell>
                <mxCell id="12" value="&#39;a&#39;" style="endArrow=classic;html=1;entryX=0;entryY=0.5;entryDx=0;entryDy=0;verticalAlign=bottom;" edge="1" parent="1" target="7">
                    <mxGeometry width="50" height="50" relative="1" as="geometry">
                        <mxPoint x="370" y="185" as="sourcePoint"/>
                        <mxPoint x="240" y="205" as="targetPoint"/>
                    </mxGeometry>
                </mxCell>
                <mxCell id="13" value="&#39;d&#39;" style="endArrow=classic;html=1;entryX=0;entryY=0.5;entryDx=0;entryDy=0;exitX=1;exitY=0.5;exitDx=0;exitDy=0;verticalAlign=bottom;" edge="1" parent="1" source="7" target="8">
                    <mxGeometry width="50" height="50" relative="1" as="geometry">
                        <mxPoint x="210" y="215" as="sourcePoint"/>
                        <mxPoint x="250" y="215" as="targetPoint"/>
                    </mxGeometry>
                </mxCell>
                <mxCell id="14" value="" style="endArrow=classic;html=1;exitX=1;exitY=0.5;exitDx=0;exitDy=0;" edge="1" parent="1" source="8">
                    <mxGeometry width="50" height="50" relative="1" as="geometry">
                        <mxPoint x="560" y="190" as="sourcePoint"/>
                        <mxPoint x="610" y="185" as="targetPoint"/>
                    </mxGeometry>
                </mxCell>
                <mxCell id="15" value="5" style="ellipse;whiteSpace=wrap;html=1;aspect=fixed;" vertex="1" parent="1">
                    <mxGeometry x="220" y="270" width="50" height="50" as="geometry"/>
                </mxCell>
                <mxCell id="16" value="L,D" style="endArrow=classic;html=1;entryX=0.5;entryY=0;entryDx=0;entryDy=0;verticalAlign=middle;exitX=0.5;exitY=1;exitDx=0;exitDy=0;labelPosition=right;verticalLabelPosition=middle;align=left;" edge="1" parent="1" source="5" target="15">
                    <mxGeometry width="50" height="50" relative="1" as="geometry">
                        <mxPoint x="190" y="195" as="sourcePoint"/>
                        <mxPoint x="230" y="195" as="targetPoint"/>
                    </mxGeometry>
                </mxCell>
                <mxCell id="17" value="&lt;span style=&quot;color: rgb(0, 0, 0); text-align: left;&quot;&gt;L,D&lt;/span&gt;" style="endArrow=classic;html=1;entryX=1;entryY=0.5;entryDx=0;entryDy=0;verticalAlign=bottom;exitX=0.5;exitY=1;exitDx=0;exitDy=0;labelPosition=left;verticalLabelPosition=top;align=right;" edge="1" parent="1" source="6" target="15">
                    <mxGeometry width="50" height="50" relative="1" as="geometry">
                        <mxPoint x="255" y="220" as="sourcePoint"/>
                        <mxPoint x="255" y="280" as="targetPoint"/>
                        <Array as="points">
                            <mxPoint x="345" y="295"/>
                        </Array>
                        <mxPoint as="offset"/>
                    </mxGeometry>
                </mxCell>
                <mxCell id="18" value="&#39;r&#39;" style="endArrow=classic;html=1;entryX=1;entryY=0.5;entryDx=0;entryDy=0;verticalAlign=bottom;exitX=0.5;exitY=1;exitDx=0;exitDy=0;labelPosition=left;verticalLabelPosition=top;align=right;" edge="1" parent="1" source="7" target="15">
                    <mxGeometry x="0.04" y="-5" width="50" height="50" relative="1" as="geometry">
                        <mxPoint x="355" y="220" as="sourcePoint"/>
                        <mxPoint x="280" y="305" as="targetPoint"/>
                        <Array as="points">
                            <mxPoint x="435" y="295"/>
                        </Array>
                        <mxPoint as="offset"/>
                    </mxGeometry>
                </mxCell>
                <mxCell id="20" value="&lt;span style=&quot;color: rgb(0, 0, 0); text-align: left;&quot;&gt;L,D&lt;/span&gt;" style="edgeLabel;html=1;align=center;verticalAlign=middle;resizable=0;points=[];" vertex="1" connectable="0" parent="18">
                    <mxGeometry x="0.032" y="-10" relative="1" as="geometry">
                        <mxPoint as="offset"/>
                    </mxGeometry>
                </mxCell>
                <mxCell id="19" value="&lt;span style=&quot;color: rgb(0, 0, 0);&quot;&gt;L,D&lt;/span&gt;" style="endArrow=classic;html=1;entryX=1;entryY=0.5;entryDx=0;entryDy=0;verticalAlign=bottom;exitX=0.5;exitY=1;exitDx=0;exitDy=0;labelPosition=left;verticalLabelPosition=top;align=left;" edge="1" parent="1" source="8" target="15">
                    <mxGeometry width="50" height="50" relative="1" as="geometry">
                        <mxPoint x="365" y="230" as="sourcePoint"/>
                        <mxPoint x="290" y="315" as="targetPoint"/>
                        <Array as="points">
                            <mxPoint x="535" y="295"/>
                        </Array>
                    </mxGeometry>
                </mxCell>
                <mxCell id="22" value="L,D" style="endArrow=classic;html=1;verticalAlign=bottom;exitX=0;exitY=0;exitDx=0;exitDy=0;elbow=vertical;entryX=0;entryY=1;entryDx=0;entryDy=0;" edge="1" parent="1" source="15" target="15">
                    <mxGeometry width="50" height="50" relative="1" as="geometry">
                        <mxPoint x="190" y="195" as="sourcePoint"/>
                        <mxPoint x="190" y="330" as="targetPoint"/>
                        <Array as="points">
                            <mxPoint x="160" y="290"/>
                        </Array>
                    </mxGeometry>
                </mxCell>
            </root>
        </mxGraphModel>
    </diagram>
</mxfile>